<svg xmlns="http://www.w3.org/2000/svg" width="50.5mm" height="40mm" viewBox="0 0 50.5 40">
  <defs>
    <pattern id="sqvent" width="3.2" height="3.2" patternUnits="userSpaceOnUse">
      <rect x="0.4" y="0.4" width="2.2" height="2.2" fill="#17191c"/>
    </pattern>
  </defs>
  <rect id="body" x="0" y="0" width="50.5" height="40" rx="0.6" fill="#a4aab1" stroke="#6a7076" stroke-width="0.4"/>
  <rect id="top-slot-1" x="21.5" y="2.2" width="5.4" height="2.6" rx="0.4" fill="#17191c"/>
  <circle id="top-screw" cx="31.2" cy="3.5" r="1.9" fill="#33373c" stroke="#17191c" stroke-width="0.3"/>
  <rect id="top-slot-2" x="35.2" y="2.2" width="5.4" height="2.6" rx="0.4" fill="#17191c"/>
  <rect id="top-slot-3" x="43.0" y="2.2" width="4.4" height="2.6" rx="0.4" fill="#17191c"/>
  <rect id="vent-field" x="5.6" y="16.5" width="12.6" height="21.0" fill="url(#sqvent)"/>
  <rect id="latch" x="0.6" y="3.5" width="4.2" height="14.5" rx="0.8" fill="#c22f2f" stroke="#8c2323" stroke-width="0.3"/>
  <g id="inlet-recess">
    <rect x="19.6" y="7.2" width="28.6" height="31.4" rx="0.8" fill="#4a4f55" stroke="#33373c" stroke-width="0.3"/>
    <rect x="42.6" y="9.0" width="3.6" height="2.6" rx="0.3" fill="#17191c"/>
    <rect x="42.6" y="13.4" width="3.6" height="2.6" rx="0.3" fill="#17191c"/>
    <rect x="42.6" y="17.8" width="3.6" height="2.6" rx="0.3" fill="#17191c"/>
    <rect x="42.6" y="22.2" width="3.6" height="2.6" rx="0.3" fill="#17191c"/>
    <rect x="42.6" y="26.6" width="3.6" height="2.6" rx="0.3" fill="#17191c"/>
    <rect x="42.6" y="31.0" width="3.6" height="2.6" rx="0.3" fill="#17191c"/>
  </g>
  <path id="handle" d="M 19.4 3.6 a 1.6 1.6 0 0 0 -1.6 1.6 L 17.8 34.8 a 1.6 1.6 0 0 0 1.6 1.6"
        fill="none" stroke="#17191c" stroke-width="2.4" stroke-linecap="round"/>
  <circle id="status-led" cx="10.2" cy="5.8" r="1.5" fill="var(--led-color, #3a3f44)"/>
</svg>
