<svg xmlns="http://www.w3.org/2000/svg" width="42.0mm" height="406.0mm" viewBox="0 0 42.0 406.0">
  <rect id="plate" x="0" y="19.46" width="42.0" height="367.89" rx="0.8" fill="#e6e7e9" stroke="#9aa0a6" stroke-width="0.3"/>
  <rect id="ejector-top" x="17.74" y="2.04" width="13.71" height="22.86" rx="1.2" fill="#b8bdc2" stroke="#9aa0a6" stroke-width="0.25"/>
  <rect id="ejector-bot" x="17.74" y="380.78" width="13.71" height="22.86" rx="1.2" fill="#b8bdc2" stroke="#9aa0a6" stroke-width="0.25"/>
  <rect id="lever-top" x="1.61" y="5.34" width="3.42" height="73.08" rx="1.71" fill="#4a4f55"/>
  <rect id="lever-bot" x="1.61" y="336.95" width="3.42" height="63.38" rx="1.71" fill="#4a4f55"/>
  <g id="screw-top"><circle cx="25.03" cy="8.22" r="3.26" fill="#b8bdc2" stroke="#9aa0a6" stroke-width="0.3"/><circle cx="25.03" cy="8.22" r="1.47" fill="#6d7379"/><path d="M 22.68 8.22 H 27.38 M 25.03 5.87 V 10.57" stroke="#3a4046" stroke-width="0.35" fill="none"/></g>
  <g id="screw-bot"><circle cx="25.03" cy="397.47" r="3.26" fill="#b8bdc2" stroke="#9aa0a6" stroke-width="0.3"/><circle cx="25.03" cy="397.47" r="1.47" fill="#6d7379"/><path d="M 22.68 397.47 H 27.38 M 25.03 395.12 V 399.82" stroke="#3a4046" stroke-width="0.35" fill="none"/></g>
  <g id="alarm-out"><path d="M 19.66 185.04 L 19.66 217.39 L 11.01 214.15 L 11.01 188.28 Z" fill="#2b2f33" stroke="#9aa0a6" stroke-width="0.4"/></g>
  <circle id="fail" cx="12.7" cy="334.92" r="1.05" fill="#8d949c" stroke="#5f6469" stroke-width="0.2"/>
  <circle id="aco" cx="12.7" cy="342.88" r="1.05" fill="#8d949c" stroke="#5f6469" stroke-width="0.2"/>
  <circle id="sync" cx="12.7" cy="350.86" r="1.05" fill="#8d949c" stroke="#5f6469" stroke-width="0.2"/>
  <circle id="crit" cx="17.53" cy="334.92" r="1.05" fill="#8d949c" stroke="#5f6469" stroke-width="0.2"/>
  <circle id="maj" cx="17.53" cy="342.88" r="1.05" fill="#8d949c" stroke="#5f6469" stroke-width="0.2"/>
  <circle id="min" cx="17.53" cy="350.86" r="1.05" fill="#8d949c" stroke="#5f6469" stroke-width="0.2"/>
  <rect id="led-matrix" x="14.56" y="356.79" width="17.72" height="7.93" rx="0.4" fill="#6f757b" stroke="#4a4f55" stroke-width="0.3"/>
  <circle id="aco" cx="11.3" cy="311.71" r="1.81" fill="#e6e7e9" stroke="#231f20" stroke-width="0.45"/>
  <circle id="lamp-test" cx="11.3" cy="321.56" r="1.81" fill="#e6e7e9" stroke="#231f20" stroke-width="0.45"/>
  <g id="silkscreen">
    <rect x="7.32" y="365.27" width="30.17" height="4.1" fill="#ffef5c"/>
    <text x="22.36" y="368.45" font-family="sans-serif" font-size="3.2" font-weight="bold" text-anchor="middle" fill="#231f20">A9K-RSP440-SE</text>
    <text x="21.04" y="43.74" transform="rotate(90 21.04 43.74)" font-family="sans-serif" font-size="2.6" fill="#231f20">SYNC 0</text>
    <text x="21.04" y="62.22" transform="rotate(90 21.04 62.22)" font-family="sans-serif" font-size="2.6" fill="#231f20">SYNC 1</text>
    <text x="21.04" y="105.26" transform="rotate(90 21.04 105.26)" font-family="sans-serif" font-size="2.6" fill="#231f20">IEEE 1588</text>
    <text x="21.04" y="124.12" transform="rotate(90 21.04 124.12)" font-family="sans-serif" font-size="2.6" fill="#231f20">ICS0</text>
    <text x="21.04" y="142.99" transform="rotate(90 21.04 142.99)" font-family="sans-serif" font-size="2.6" fill="#231f20">ICS1/TOD</text>
    <text x="21.04" y="232.1" transform="rotate(90 21.04 232.1)" font-family="sans-serif" font-size="2.6" fill="#231f20">MGT LAN0</text>
    <text x="21.04" y="251.79" transform="rotate(90 21.04 251.79)" font-family="sans-serif" font-size="2.6" fill="#231f20">MGT LAN1</text>
    <text x="21.04" y="271.76" transform="rotate(90 21.04 271.76)" font-family="sans-serif" font-size="2.6" fill="#231f20">CONSOLE</text>
    <text x="21.04" y="291.44" transform="rotate(90 21.04 291.44)" font-family="sans-serif" font-size="2.6" fill="#231f20">AUX</text>
    <text x="17.32" y="164.07" transform="rotate(90 17.32 164.07)" font-family="sans-serif" font-size="2.4" fill="#231f20">10MHz</text>
    <text x="17.32" y="173.83" transform="rotate(90 17.32 173.83)" font-family="sans-serif" font-size="2.4" fill="#231f20">1PPS</text>
    <text x="24.29" y="188.12" transform="rotate(90 24.29 188.12)" font-family="sans-serif" font-size="2.6" fill="#231f20">ALARM OUT</text>
    <text x="14.66" y="333.22" transform="rotate(90 14.66 333.22)" font-family="sans-serif" font-size="1.8" fill="#231f20">FAIL</text>
    <text x="14.66" y="341.19" transform="rotate(90 14.66 341.19)" font-family="sans-serif" font-size="1.8" fill="#231f20">ACO</text>
    <text x="14.66" y="349.17" transform="rotate(90 14.66 349.17)" font-family="sans-serif" font-size="1.8" fill="#231f20">SYNC</text>
    <text x="19.49" y="333.22" transform="rotate(90 19.49 333.22)" font-family="sans-serif" font-size="1.8" fill="#231f20">CRIT</text>
    <text x="19.49" y="341.19" transform="rotate(90 19.49 341.19)" font-family="sans-serif" font-size="1.8" fill="#231f20">MAJ</text>
    <text x="19.49" y="349.17" transform="rotate(90 19.49 349.17)" font-family="sans-serif" font-size="1.8" fill="#231f20">MIN</text>
    <text x="14.32" y="310.78" transform="rotate(90 14.32 310.78)" font-family="sans-serif" font-size="2.0" fill="#231f20">ACO</text>
    <text x="14.32" y="320.63" transform="rotate(90 14.32 320.63)" font-family="sans-serif" font-size="2.0" fill="#231f20">LAMP TEST</text>
  </g>
</svg>
