<svg xmlns="http://www.w3.org/2000/svg" width="30mm" height="405mm" viewBox="0 0 30 405">
  <rect id="face" x="0" y="0" width="30" height="405" rx="0.6" fill="#c8cbcf" stroke="#8d9298" stroke-width="0.3"/>
  <g id="port-housing">
    <rect x="1.8" y="74.1" width="23.5" height="197.8" rx="0.5" fill="#6f757c" stroke="#33373c" stroke-width="0.35"/>
    <rect id="sfp1-face" x="1.8" y="74.1" width="23.5" height="14.25" fill="#aeb3b8" stroke="#4a4f55" stroke-width="0.2"/>
    <rect id="sfp1-return" x="1.8" y="88.35" width="23.5" height="14.25" fill="#7b8187" stroke="#4a4f55" stroke-width="0.2"/>
    <rect id="sfp2-face" x="1.8" y="102.6" width="23.5" height="14.25" fill="#aeb3b8" stroke="#4a4f55" stroke-width="0.2"/>
    <rect id="sfp2-return" x="1.8" y="116.85" width="23.5" height="14.25" fill="#7b8187" stroke="#4a4f55" stroke-width="0.2"/>
    <rect id="sfp3-face" x="1.8" y="131.1" width="23.5" height="14.25" fill="#aeb3b8" stroke="#4a4f55" stroke-width="0.2"/>
    <rect id="sfp3-return" x="1.8" y="145.35" width="23.5" height="14.25" fill="#7b8187" stroke="#4a4f55" stroke-width="0.2"/>
    <rect id="sfp4-face" x="1.8" y="159.6" width="23.5" height="14.25" fill="#aeb3b8" stroke="#4a4f55" stroke-width="0.2"/>
    <rect id="sfp4-return" x="1.8" y="173.85" width="23.5" height="14.25" fill="#7b8187" stroke="#4a4f55" stroke-width="0.2"/>
    <rect id="cfp4-face" x="1.8" y="190.8" width="23.5" height="18.9" fill="#aeb3b8" stroke="#4a4f55" stroke-width="0.2"/>
    <rect id="cfp4-return" x="1.8" y="209.7" width="23.5" height="18.9" fill="#7b8187" stroke="#4a4f55" stroke-width="0.2"/>
    <rect id="sma-face" x="1.8" y="228.6" width="23.5" height="21.65" fill="#aeb3b8" stroke="#4a4f55" stroke-width="0.2"/>
    <rect id="sma-return" x="1.8" y="250.25" width="23.5" height="21.65" fill="#7b8187" stroke="#4a4f55" stroke-width="0.2"/>
    <g id="cfp4-aperture"><rect x="8.8" y="192.649" width="9.5" height="15.203" rx="0.6" fill="#1d2024" stroke="#0e1012" stroke-width="0.3"/><rect x="9.8" y="193.649" width="7.5" height="13.203" rx="0.4" fill="none" stroke="#3a3f45" stroke-width="0.25"/></g>
  </g>
  <g id="jack-frames" fill="none" stroke="#5f656c" stroke-width="0.3">
    <rect x="6.2" y="289.45" width="14.8" height="33.15" rx="0.3"/>
    <rect x="6.2" y="325.06" width="14.8" height="17.08" rx="0.3"/>
    <rect x="6.2" y="344.18" width="14.8" height="17.12" rx="0.3"/>
    <rect x="6.2" y="363.4" width="14.8" height="16.7" rx="0.3"/>
  </g>
  <g id="lever-top"><rect x="0.4" y="1" width="9.6" height="32" rx="2.4" fill="#2b2e33" stroke="#17191c" stroke-width="0.25"/><rect x="1.8" y="13" width="6.8" height="14" rx="1.6" fill="#3a3e44"/></g>
  <g id="lever-bottom"><rect x="0.4" y="325.5" width="5.2" height="78" rx="1.4" fill="#2b2e33" stroke="#17191c" stroke-width="0.25"/><rect x="1.4" y="327.5" width="3.2" height="30" rx="0.8" fill="#3a3e44"/></g>
  <g id="screw-top"><circle cx="19.4" cy="5.25" r="5.25" fill="#3a3d42" stroke="#17191c" stroke-width="0.3"/><circle cx="19.4" cy="5.25" r="4.763" fill="none" stroke="#5a5e64" stroke-width="0.5" stroke-dasharray="0.5 0.5"/><path d="M 17.235 5.25 L 21.565 5.25 M 19.4 3.085 L 19.4 7.415" stroke="#8d9298" stroke-width="0.45"/></g>
  <g id="screw-bottom"><circle cx="19.4" cy="399.75" r="5.25" fill="#3a3d42" stroke="#17191c" stroke-width="0.3"/><circle cx="19.4" cy="399.75" r="4.763" fill="none" stroke="#5a5e64" stroke-width="0.5" stroke-dasharray="0.5 0.5"/><path d="M 17.235 399.75 L 21.565 399.75 M 19.4 397.585 L 19.4 401.915" stroke="#8d9298" stroke-width="0.45"/></g>
  <rect id="logo-zone" x="11.0" y="14.5" width="12.0" height="5.5" fill="none"/>
  <g id="marks" fill="none" stroke="#3a3d42" stroke-width="0.25">
    <rect x="4.2" y="61.2" width="8.3" height="5.1"/><rect x="4.7" y="61.8" width="3.2" height="3.6"/>
    <rect x="17.1" y="278.7" width="8.8" height="5.1"/>
    <rect x="9.0" y="385.4" width="6.5" height="5.1"/>
    <path d="M 21.5 384.1 L 26.1 391.8 L 16.9 391.8 Z"/>
  </g>
  <g id="silkscreen" fill="#1c1f23" font-family="Helvetica, Arial, sans-serif">
    <text x="15.7" y="26.3" font-size="2.2" font-weight="bold" text-anchor="middle">FANT-G</text>
    <text x="17.1" y="30.8" font-size="2.0" text-anchor="middle">ACO</text>
    <text x="6.9" y="38.15" font-size="1.8" text-anchor="end">ALM</text>
    <text x="16.4" y="38.15" font-size="1.8">PWR</text>
    <text x="6.9" y="43.18" font-size="1.8" text-anchor="end">ACO</text>
    <text x="16.4" y="43.18" font-size="1.8">A/S</text>
    <text x="6.9" y="48.21" font-size="1.8" text-anchor="end">FSM2</text>
    <text x="16.4" y="48.21" font-size="1.8">FSM1</text>
    <text x="6.9" y="53.24" font-size="1.8" text-anchor="end">FSM4</text>
    <text x="16.4" y="53.24" font-size="1.8">FSM3</text>
    <text x="16.4" y="58.27" font-size="1.8">FSM5</text>
    <text x="11.7" y="280.9" font-size="2.2" text-anchor="middle" transform="rotate(90 11.7 280.9)">USB</text>
    <text x="25.2" y="297.9" font-size="2.2" text-anchor="middle" transform="rotate(90 25.2 297.9)">BITS.IN</text>
    <text x="25.2" y="312.7" font-size="2.2" text-anchor="middle" transform="rotate(90 25.2 312.7)">BITS.OUT</text>
    <text x="25.2" y="333.1" font-size="2.2" text-anchor="middle" transform="rotate(90 25.2 333.1)">FUI4</text>
    <text x="25.2" y="352.7" font-size="2.2" text-anchor="middle" transform="rotate(90 25.2 352.7)">LCRT</text>
    <text x="25.2" y="372.2" font-size="2.2" text-anchor="middle" transform="rotate(90 25.2 372.2)">ToD/1PPS</text>
  </g>
</svg>
