<svg xmlns="http://www.w3.org/2000/svg" width="77.65mm" height="17.38mm" viewBox="0 0 77.65 17.38">
  <!-- Dell 1U two-slot E3.S filler. Estimated art from ISM figure 4. -->
  <rect id="plate" x="0.15" y="0.15" width="77.35" height="17.08" rx="0.6" fill="#33383d" stroke="#1d2125" stroke-width="0.25"/>
  <rect x="4.6" y="3.0" width="68.4" height="11.4" rx="0.5" fill="#262a2e"/>
  <g id="vents"><rect x="6.00" y="4.2" width="2.2" height="9.0" rx="0.4" fill="#141719"/><rect x="9.40" y="4.2" width="2.2" height="9.0" rx="0.4" fill="#141719"/><rect x="12.80" y="4.2" width="2.2" height="9.0" rx="0.4" fill="#141719"/><rect x="16.20" y="4.2" width="2.2" height="9.0" rx="0.4" fill="#141719"/><rect x="19.60" y="4.2" width="2.2" height="9.0" rx="0.4" fill="#141719"/><rect x="23.00" y="4.2" width="2.2" height="9.0" rx="0.4" fill="#141719"/><rect x="26.40" y="4.2" width="2.2" height="9.0" rx="0.4" fill="#141719"/><rect x="29.80" y="4.2" width="2.2" height="9.0" rx="0.4" fill="#141719"/><rect x="33.20" y="4.2" width="2.2" height="9.0" rx="0.4" fill="#141719"/><rect x="36.60" y="4.2" width="2.2" height="9.0" rx="0.4" fill="#141719"/><rect x="40.00" y="4.2" width="2.2" height="9.0" rx="0.4" fill="#141719"/><rect x="43.40" y="4.2" width="2.2" height="9.0" rx="0.4" fill="#141719"/><rect x="46.80" y="4.2" width="2.2" height="9.0" rx="0.4" fill="#141719"/><rect x="50.20" y="4.2" width="2.2" height="9.0" rx="0.4" fill="#141719"/><rect x="53.60" y="4.2" width="2.2" height="9.0" rx="0.4" fill="#141719"/><rect x="57.00" y="4.2" width="2.2" height="9.0" rx="0.4" fill="#141719"/><rect x="60.40" y="4.2" width="2.2" height="9.0" rx="0.4" fill="#141719"/><rect x="63.80" y="4.2" width="2.2" height="9.0" rx="0.4" fill="#141719"/><rect x="67.20" y="4.2" width="2.2" height="9.0" rx="0.4" fill="#141719"/></g>
</svg>
