<svg xmlns="http://www.w3.org/2000/svg" width="42.67mm" height="403.1mm" viewBox="0 0 42.67 403.1">
<rect id="plate" x="0.0" y="19.131" width="42.67" height="365.479" rx="0.81" fill="#e6e7e9" stroke="#9aa0a6" stroke-width="0.3"/>
<rect id="ejector-top" x="4.585" y="0.0" width="13.101" height="21.872" rx="1.22" fill="#b8bdc2" stroke="#9aa0a6" stroke-width="0.25"/>
<rect id="ejector-bot" x="4.585" y="380.699" width="13.101" height="22.401" rx="1.22" fill="#b8bdc2" stroke="#9aa0a6" stroke-width="0.25"/>
<rect id="lever-top" x="1.3" y="5.297" width="3.48" height="72.562" rx="1.74" fill="#4a4f55"/>
<rect id="lever-bot" x="1.3" y="324.915" width="3.48" height="72.562" rx="1.74" fill="#4a4f55"/>
<g id="screw-top"><circle cx="25.106" cy="8.16" r="3.301" fill="#b8bdc2" stroke="#9aa0a6" stroke-width="0.3"/><circle cx="25.106" cy="8.16" r="1.49" fill="#6d7379"/><path d="M 22.73 8.16 H 27.48 M 25.106 5.78 V 10.54" stroke="#3a4046" stroke-width="0.36" fill="none"/></g>
<g id="screw-bot"><circle cx="25.106" cy="394.635" r="3.301" fill="#b8bdc2" stroke="#9aa0a6" stroke-width="0.3"/><circle cx="25.106" cy="394.635" r="1.49" fill="#6d7379"/><path d="M 22.73 394.635 H 27.48 M 25.106 392.26 V 397.01" stroke="#3a4046" stroke-width="0.36" fill="none"/></g>
<circle id="pivot-top" cx="21.094" cy="22.625" r="3.056" fill="#b8bdc2" stroke="#9aa0a6" stroke-width="0.25"/>
<rect id="asset-label" x="4.913" y="376.685" width="22.937" height="8.965" rx="0.51" fill="#2e7489"/>
  <g id="silkscreen">
    <rect x="0.614" y="27.719" width="41.441" height="4.075" fill="#ffef5c"/>
    <text x="21.33" y="30.9" font-family="sans-serif" font-size="3.32" font-weight="bold" text-anchor="middle" fill="#231f20">A99-10X400GE-X-SE</text>
    <rect x="25.465" y="20.384" width="13.101" height="6.245" fill="#ffef5c"/>
    <text x="32.02" y="23.13" font-family="sans-serif" font-size="2.22" font-weight="bold" text-anchor="middle" fill="#231f20">CLASS 1</text>
    <text x="32.02" y="25.75" font-family="sans-serif" font-size="2.22" font-weight="bold" text-anchor="middle" fill="#231f20">LASER</text>
    <text x="25.37" y="380.86" font-family="sans-serif" font-size="2.04" fill="#231f20">STATUS</text>
    <text x="7.1" y="45.49" transform="rotate(90 7.1 45.49)" font-family="sans-serif" font-size="2.83" fill="#231f20">0</text>
    <text x="7.1" y="109.09" transform="rotate(90 7.1 109.09)" font-family="sans-serif" font-size="2.83" fill="#231f20">2</text>
    <text x="7.1" y="140.88" transform="rotate(90 7.1 140.88)" font-family="sans-serif" font-size="2.83" fill="#231f20">3</text>
    <text x="36.8" y="185.09" transform="rotate(90 36.8 185.09)" font-family="sans-serif" font-size="2.83" fill="#231f20">4</text>
    <text x="36.8" y="216.89" transform="rotate(90 36.8 216.89)" font-family="sans-serif" font-size="2.83" fill="#231f20">5</text>
    <text x="36.8" y="248.69" transform="rotate(90 36.8 248.69)" font-family="sans-serif" font-size="2.83" fill="#231f20">6</text>
    <text x="36.8" y="280.49" transform="rotate(90 36.8 280.49)" font-family="sans-serif" font-size="2.83" fill="#231f20">7</text>
    <text x="36.8" y="312.28" transform="rotate(90 36.8 312.28)" font-family="sans-serif" font-size="2.83" fill="#231f20">8</text>
    <text x="36.8" y="344.08" transform="rotate(90 36.8 344.08)" font-family="sans-serif" font-size="2.83" fill="#231f20">9</text>
    <text x="7.1" y="77.29" transform="rotate(90 7.1 77.29)" font-family="sans-serif" font-size="2.83" fill="#231f20">1</text>
  </g>
  <rect id="led-p0" x="6.96" y="40.67" width="2.05" height="3.26" rx="0.3" fill="#8d949c" stroke="#5f6469" stroke-width="0.15"/>
  <rect id="led-p1" x="6.96" y="72.47" width="2.05" height="3.26" rx="0.3" fill="#8d949c" stroke="#5f6469" stroke-width="0.15"/>
  <rect id="led-p2" x="6.96" y="104.27" width="2.05" height="3.26" rx="0.3" fill="#8d949c" stroke="#5f6469" stroke-width="0.15"/>
  <rect id="led-p3" x="6.96" y="136.07" width="2.05" height="3.26" rx="0.3" fill="#8d949c" stroke="#5f6469" stroke-width="0.15"/>
  <rect id="led-p4" x="36.66" y="180.28" width="2.05" height="3.26" rx="0.3" fill="#8d949c" stroke="#5f6469" stroke-width="0.15"/>
  <rect id="led-p5" x="36.66" y="212.08" width="2.05" height="3.26" rx="0.3" fill="#8d949c" stroke="#5f6469" stroke-width="0.15"/>
  <rect id="led-p6" x="36.66" y="243.88" width="2.05" height="3.26" rx="0.3" fill="#8d949c" stroke="#5f6469" stroke-width="0.15"/>
  <rect id="led-p7" x="36.66" y="275.68" width="2.05" height="3.26" rx="0.3" fill="#8d949c" stroke="#5f6469" stroke-width="0.15"/>
  <rect id="led-p8" x="36.66" y="307.48" width="2.05" height="3.26" rx="0.3" fill="#8d949c" stroke="#5f6469" stroke-width="0.15"/>
  <rect id="led-p9" x="36.66" y="339.27" width="2.05" height="3.26" rx="0.3" fill="#8d949c" stroke="#5f6469" stroke-width="0.15"/>
  <circle id="status" cx="21.094" cy="379.945" r="1.89" fill="#39b54a" stroke="#9aa0a6" stroke-width="0.25"/>
</svg>
