<svg xmlns="http://www.w3.org/2000/svg" width="25.0mm" height="405.0mm" viewBox="0 0 25.0 405.0">
  <rect id="face" x="0" y="0" width="25.0" height="405.0" rx="0.5" fill="#c9ccd0" stroke="#9ba0a6" stroke-width="0.3"/>
  <rect id="rail" x="0" y="0" width="3.8" height="405.0" fill="#b8bcc1" stroke="#9ba0a6" stroke-width="0.2"/>
  <g id="teeth">
    <rect id="face-1" x="6.2" y="36.811" width="17.2" height="15.367" fill="#b8bcc1" stroke="#8d9298" stroke-width="0.15"/>
    <rect id="return-1" x="6.2" y="52.179" width="17.2" height="5.123" fill="#8a9096" stroke="#7d848c" stroke-width="0.15"/>
    <rect id="face-2" x="6.2" y="57.301" width="17.2" height="15.367" fill="#b8bcc1" stroke="#8d9298" stroke-width="0.15"/>
    <rect id="return-2" x="6.2" y="72.669" width="17.2" height="5.123" fill="#8a9096" stroke="#7d848c" stroke-width="0.15"/>
    <rect id="face-3" x="6.2" y="77.791" width="17.2" height="15.367" fill="#b8bcc1" stroke="#8d9298" stroke-width="0.15"/>
    <rect id="return-3" x="6.2" y="93.159" width="17.2" height="5.123" fill="#8a9096" stroke="#7d848c" stroke-width="0.15"/>
    <rect id="face-4" x="6.2" y="98.281" width="17.2" height="15.367" fill="#b8bcc1" stroke="#8d9298" stroke-width="0.15"/>
    <rect id="return-4" x="6.2" y="113.649" width="17.2" height="5.123" fill="#8a9096" stroke="#7d848c" stroke-width="0.15"/>
    <rect id="face-5" x="6.2" y="118.771" width="17.2" height="15.367" fill="#b8bcc1" stroke="#8d9298" stroke-width="0.15"/>
    <rect id="return-5" x="6.2" y="134.139" width="17.2" height="5.123" fill="#8a9096" stroke="#7d848c" stroke-width="0.15"/>
    <rect id="face-6" x="6.2" y="139.261" width="17.2" height="15.368" fill="#b8bcc1" stroke="#8d9298" stroke-width="0.15"/>
    <rect id="return-6" x="6.2" y="154.629" width="17.2" height="5.123" fill="#8a9096" stroke="#7d848c" stroke-width="0.15"/>
    <rect id="face-7" x="6.2" y="159.751" width="17.2" height="15.368" fill="#b8bcc1" stroke="#8d9298" stroke-width="0.15"/>
    <rect id="return-7" x="6.2" y="175.119" width="17.2" height="5.123" fill="#8a9096" stroke="#7d848c" stroke-width="0.15"/>
    <rect id="face-8" x="6.2" y="180.241" width="17.2" height="15.368" fill="#b8bcc1" stroke="#8d9298" stroke-width="0.15"/>
    <rect id="return-8" x="6.2" y="195.609" width="17.2" height="5.123" fill="#8a9096" stroke="#7d848c" stroke-width="0.15"/>
    <rect id="face-9" x="6.2" y="200.731" width="17.2" height="15.368" fill="#b8bcc1" stroke="#8d9298" stroke-width="0.15"/>
    <rect id="return-9" x="6.2" y="216.099" width="17.2" height="5.123" fill="#8a9096" stroke="#7d848c" stroke-width="0.15"/>
    <rect id="face-10" x="6.2" y="221.221" width="17.2" height="15.368" fill="#b8bcc1" stroke="#8d9298" stroke-width="0.15"/>
    <rect id="return-10" x="6.2" y="236.589" width="17.2" height="5.123" fill="#8a9096" stroke="#7d848c" stroke-width="0.15"/>
    <rect id="face-11" x="6.2" y="241.711" width="17.2" height="15.368" fill="#b8bcc1" stroke="#8d9298" stroke-width="0.15"/>
    <rect id="return-11" x="6.2" y="257.079" width="17.2" height="5.123" fill="#8a9096" stroke="#7d848c" stroke-width="0.15"/>
    <rect id="face-12" x="6.2" y="262.201" width="17.2" height="15.368" fill="#b8bcc1" stroke="#8d9298" stroke-width="0.15"/>
    <rect id="return-12" x="6.2" y="277.569" width="17.2" height="5.123" fill="#8a9096" stroke="#7d848c" stroke-width="0.15"/>
    <rect id="face-13" x="6.2" y="282.691" width="17.2" height="15.368" fill="#b8bcc1" stroke="#8d9298" stroke-width="0.15"/>
    <rect id="return-13" x="6.2" y="298.059" width="17.2" height="5.123" fill="#8a9096" stroke="#7d848c" stroke-width="0.15"/>
    <rect id="face-14" x="6.2" y="303.181" width="17.2" height="15.368" fill="#b8bcc1" stroke="#8d9298" stroke-width="0.15"/>
    <rect id="return-14" x="6.2" y="318.549" width="17.2" height="5.123" fill="#8a9096" stroke="#7d848c" stroke-width="0.15"/>
    <rect id="face-15" x="6.2" y="323.671" width="17.2" height="15.368" fill="#b8bcc1" stroke="#8d9298" stroke-width="0.15"/>
    <rect id="return-15" x="6.2" y="339.039" width="17.2" height="5.123" fill="#8a9096" stroke="#7d848c" stroke-width="0.15"/>
    <rect id="face-16" x="6.2" y="344.161" width="17.2" height="15.368" fill="#b8bcc1" stroke="#8d9298" stroke-width="0.15"/>
    <rect id="return-16" x="6.2" y="359.529" width="17.2" height="5.123" fill="#8a9096" stroke="#7d848c" stroke-width="0.15"/>
  </g>
  <g id="label-unit"><rect x="8.7" y="14.4" width="15.3" height="11.5" rx="0.4" fill="#eceeef" stroke="#8d9298" stroke-width="0.2"/><rect x="9.8" y="21.6" width="0.3" height="2.6" fill="#26292d"/><rect x="10.35" y="21.6" width="0.15" height="2.6" fill="#26292d"/><rect x="10.75" y="21.6" width="0.45" height="2.6" fill="#26292d"/><rect x="11.45" y="21.6" width="0.15" height="2.6" fill="#26292d"/><rect x="11.85" y="21.6" width="0.3" height="2.6" fill="#26292d"/><rect x="12.4" y="21.6" width="0.6" height="2.6" fill="#26292d"/><rect x="13.25" y="21.6" width="0.15" height="2.6" fill="#26292d"/><rect x="13.65" y="21.6" width="0.3" height="2.6" fill="#26292d"/><rect x="14.2" y="21.6" width="0.15" height="2.6" fill="#26292d"/><rect x="14.6" y="21.6" width="0.45" height="2.6" fill="#26292d"/><rect x="15.3" y="21.6" width="0.3" height="2.6" fill="#26292d"/><rect x="15.85" y="21.6" width="0.15" height="2.6" fill="#26292d"/><rect x="16.25" y="21.6" width="0.6" height="2.6" fill="#26292d"/><rect x="17.1" y="21.6" width="0.15" height="2.6" fill="#26292d"/><rect x="17.5" y="21.6" width="0.3" height="2.6" fill="#26292d"/><rect x="18.05" y="21.6" width="0.45" height="2.6" fill="#26292d"/><rect x="18.75" y="21.6" width="0.15" height="2.6" fill="#26292d"/><rect x="19.15" y="21.6" width="0.3" height="2.6" fill="#26292d"/><rect x="19.7" y="21.6" width="0.3" height="2.6" fill="#26292d"/><rect x="20.25" y="21.6" width="0.15" height="2.6" fill="#26292d"/><rect x="20.65" y="21.6" width="0.45" height="2.6" fill="#26292d"/><rect x="21.35" y="21.6" width="0.15" height="2.6" fill="#26292d"/><rect x="21.75" y="21.6" width="0.3" height="2.6" fill="#26292d"/></g>
  <rect id="logo-zone" x="8.7" y="26.6" width="15.3" height="3.8" fill="none"/>
  <g id="label-serial"><rect x="8.7" y="383.2" width="14.1" height="10.9" rx="0.3" fill="#eceeef" stroke="#8d9298" stroke-width="0.2"/><rect x="9.7" y="385" width="0.3" height="3.4" fill="#26292d"/><rect x="10.25" y="385" width="0.15" height="3.4" fill="#26292d"/><rect x="10.65" y="385" width="0.45" height="3.4" fill="#26292d"/><rect x="11.35" y="385" width="0.15" height="3.4" fill="#26292d"/><rect x="11.75" y="385" width="0.3" height="3.4" fill="#26292d"/><rect x="12.3" y="385" width="0.6" height="3.4" fill="#26292d"/><rect x="13.15" y="385" width="0.15" height="3.4" fill="#26292d"/><rect x="13.55" y="385" width="0.3" height="3.4" fill="#26292d"/><rect x="14.1" y="385" width="0.15" height="3.4" fill="#26292d"/><rect x="14.5" y="385" width="0.45" height="3.4" fill="#26292d"/><rect x="15.2" y="385" width="0.3" height="3.4" fill="#26292d"/><rect x="15.75" y="385" width="0.15" height="3.4" fill="#26292d"/><rect x="16.15" y="385" width="0.6" height="3.4" fill="#26292d"/><rect x="17" y="385" width="0.15" height="3.4" fill="#26292d"/><rect x="17.4" y="385" width="0.3" height="3.4" fill="#26292d"/><rect x="17.95" y="385" width="0.45" height="3.4" fill="#26292d"/><rect x="18.65" y="385" width="0.15" height="3.4" fill="#26292d"/><rect x="19.05" y="385" width="0.3" height="3.4" fill="#26292d"/><rect x="19.6" y="385" width="0.3" height="3.4" fill="#26292d"/><rect x="20.15" y="385" width="0.15" height="3.4" fill="#26292d"/><rect x="20.55" y="385" width="0.45" height="3.4" fill="#26292d"/><rect x="21.25" y="385" width="0.15" height="3.4" fill="#26292d"/></g>
  <g id="ejector-top"><path d="M 1.9 1.4 H 7.1 V 29.0 Q 7.1 31.0 5.1 31.0 H 3.9 Q 1.9 31.0 1.9 29.0 Z" fill="#2e3236" stroke="#1d2023" stroke-width="0.25"/></g>
  <g id="ejector-bottom"><path d="M 3.9 373.1 H 5.1 Q 7.1 373.1 7.1 375.1 V 402.7 H 3.8 V 391.2 H 1.9 V 375.1 Q 1.9 373.1 3.9 373.1 Z" fill="#2e3236" stroke="#1d2023" stroke-width="0.25"/></g>
  <g id="screw-top"><circle cx="17.4" cy="4.3" r="3.2" fill="#15171a" stroke="#4a4f55" stroke-width="0.3"/><circle cx="17.4" cy="4.3" r="1.6" fill="none" stroke="#4a4f55" stroke-width="0.25"/></g>
  <g id="screw-bottom"><circle cx="17.4" cy="400.4" r="3.2" fill="#15171a" stroke="#4a4f55" stroke-width="0.3"/><circle cx="17.4" cy="400.4" r="1.6" fill="none" stroke="#4a4f55" stroke-width="0.25"/></g>
  <g id="lamp-bezels"><circle cx="10.3" cy="379.4" r="1.8" fill="none" stroke="#6b7076" stroke-width="0.25"/><circle cx="15.2" cy="379.4" r="1.8" fill="none" stroke="#6b7076" stroke-width="0.25"/></g>
  <g id="silkscreen">
    <text x="16.35" y="18.2" font-family="Arial" font-size="1.9" fill="#1d2023" text-anchor="middle" font-weight="bold">FGUT-A</text>
    <text x="16.35" y="20.6" font-family="Arial" font-size="1.3" fill="#1d2023" text-anchor="middle" id="silk-part-number" data-from="part-number">3FE 76986 AA</text>
    <text x="4.1" y="38.8" font-family="Arial" font-size="1.5" fill="#1d2023" text-anchor="middle" transform="rotate(90 4.1 38.8)">1</text>
    <text x="4.1" y="59.29" font-family="Arial" font-size="1.5" fill="#1d2023" text-anchor="middle" transform="rotate(90 4.1 59.29)">2</text>
    <text x="4.1" y="79.78" font-family="Arial" font-size="1.5" fill="#1d2023" text-anchor="middle" transform="rotate(90 4.1 79.78)">3</text>
    <text x="4.1" y="100.27" font-family="Arial" font-size="1.5" fill="#1d2023" text-anchor="middle" transform="rotate(90 4.1 100.27)">4</text>
    <text x="4.1" y="120.76" font-family="Arial" font-size="1.5" fill="#1d2023" text-anchor="middle" transform="rotate(90 4.1 120.76)">5</text>
    <text x="4.1" y="141.25" font-family="Arial" font-size="1.5" fill="#1d2023" text-anchor="middle" transform="rotate(90 4.1 141.25)">6</text>
    <text x="4.1" y="161.74" font-family="Arial" font-size="1.5" fill="#1d2023" text-anchor="middle" transform="rotate(90 4.1 161.74)">7</text>
    <text x="4.1" y="182.23" font-family="Arial" font-size="1.5" fill="#1d2023" text-anchor="middle" transform="rotate(90 4.1 182.23)">8</text>
    <text x="4.1" y="202.72" font-family="Arial" font-size="1.5" fill="#1d2023" text-anchor="middle" transform="rotate(90 4.1 202.72)">9</text>
    <text x="4.1" y="223.21" font-family="Arial" font-size="1.5" fill="#1d2023" text-anchor="middle" transform="rotate(90 4.1 223.21)">10</text>
    <text x="4.1" y="243.7" font-family="Arial" font-size="1.5" fill="#1d2023" text-anchor="middle" transform="rotate(90 4.1 243.7)">11</text>
    <text x="4.1" y="264.19" font-family="Arial" font-size="1.5" fill="#1d2023" text-anchor="middle" transform="rotate(90 4.1 264.19)">12</text>
    <text x="4.1" y="284.68" font-family="Arial" font-size="1.5" fill="#1d2023" text-anchor="middle" transform="rotate(90 4.1 284.68)">13</text>
    <text x="4.1" y="305.17" font-family="Arial" font-size="1.5" fill="#1d2023" text-anchor="middle" transform="rotate(90 4.1 305.17)">14</text>
    <text x="4.1" y="325.66" font-family="Arial" font-size="1.5" fill="#1d2023" text-anchor="middle" transform="rotate(90 4.1 325.66)">15</text>
    <text x="4.1" y="346.15" font-family="Arial" font-size="1.5" fill="#1d2023" text-anchor="middle" transform="rotate(90 4.1 346.15)">16</text>
    <text x="10.3" y="376.9" font-family="Arial" font-size="1.3" fill="#1d2023" text-anchor="middle">ALM</text>
    <text x="15.2" y="376.9" font-family="Arial" font-size="1.3" fill="#1d2023" text-anchor="middle">PWR</text>
    <path d="M 7.6 362.16 L 11 368.04 L 4.2 368.04 Z" fill="none" stroke="#1d2023" stroke-width="0.25"/>
    <path d="M 6.5 366.9 L 8.9 364.1" fill="none" stroke="#1d2023" stroke-width="0.25"/>
    <path d="M 19.3 361.8 L 23 368.2 L 15.6 368.2 Z" fill="none" stroke="#1d2023" stroke-width="0.25"/>
    <path d="M 18.3 366.6 Q 18.7 365.9 18.3 365.2 Q 17.9 364.5 18.3 363.8" fill="none" stroke="#1d2023" stroke-width="0.2"/>
    <path d="M 19.3 366.6 Q 19.7 365.9 19.3 365.2 Q 18.9 364.5 19.3 363.8" fill="none" stroke="#1d2023" stroke-width="0.2"/>
    <path d="M 20.3 366.6 Q 20.7 365.9 20.3 365.2 Q 19.9 364.5 20.3 363.8" fill="none" stroke="#1d2023" stroke-width="0.2"/>
    <path d="M 17.5 367.2 L 21.1 367.2" fill="none" stroke="#1d2023" stroke-width="0.2"/>
  </g>
</svg>
