<svg xmlns="http://www.w3.org/2000/svg" width="82.5mm" height="81.5mm" viewBox="0 0 82.5 81.5">
  <defs>
    <pattern id="hex803816" width="4.43" height="2.555" patternUnits="userSpaceOnUse">
      <path d="M 1.275 0 L 0.6375 1.104 L -0.6375 1.104 L -1.275 0 L -0.6375 -1.104 L 0.6375 -1.104 Z" fill="#0d0f11"/>
      <path d="M 5.705 0 L 5.0675 1.104 L 3.7925 1.104 L 3.155 0 L 3.7925 -1.104 L 5.0675 -1.104 Z" fill="#0d0f11"/>
      <path d="M 3.49 1.2775 L 2.8525 2.3815 L 1.5775 2.3815 L 0.94 1.2775 L 1.5775 0.1735 L 2.8525 0.1735 Z" fill="#0d0f11"/>
      <path d="M 1.275 2.555 L 0.6375 3.659 L -0.6375 3.659 L -1.275 2.555 L -0.6375 1.451 L 0.6375 1.451 Z" fill="#0d0f11"/>
      <path d="M 5.705 2.555 L 5.0675 3.659 L 3.7925 3.659 L 3.155 2.555 L 3.7925 1.451 L 5.0675 1.451 Z" fill="#0d0f11"/>
    </pattern>
  </defs>
  <rect id="body" x="0" y="0" width="82.5" height="81.5" rx="0.8" fill="#2b2f33" stroke="#1a1d20" stroke-width="0.5"/>
  <rect id="grille-bed" x="8.6" y="2.6" width="70.4" height="76.3" rx="1.0" fill="#3d4348"/>
  <rect id="rotor-grille" x="8.6" y="2.6" width="70.4" height="76.3" rx="1.0" fill="url(#hex803816)"/>
  <rect id="grille-edge" x="8.6" y="2.6" width="70.4" height="76.3" rx="1.0" fill="none" stroke="#4a5056" stroke-width="0.4"/>
  <g id="airflow-label">
    <rect x="10.4" y="3.1" width="8.3" height="7.4" rx="0.6" fill="#c8102e"/>
    <rect x="13.0" y="4.7" width="1.0" height="4.2" fill="#17191c"/>
    <rect x="13.0" y="4.7" width="3.4" height="1.0" fill="#17191c"/>
    <rect x="13.0" y="6.4" width="2.7" height="1.0" fill="#17191c"/>
    <rect x="13.0" y="7.9" width="3.4" height="1.0" fill="#17191c"/>
  </g>
  <circle id="status-led" cx="17.5" cy="19.8" r="1.3" fill="var(--led-color, #3a3f44)" stroke="#1a1d20" stroke-width="0.2"/>
  <g id="release-tab">
    <rect x="0.0" y="30.7" width="8.5" height="22.8" rx="0.9" fill="#c8102e" stroke="#8f0b21" stroke-width="0.3"/>
    <rect x="3.6" y="37.4" width="1.3" height="9.4" rx="0.5" fill="#17191c"/>
  </g>
  <g id="handle" fill="none" stroke="#c22f2f" stroke-width="4.6" stroke-linecap="round">
    <path d="M 35.4 22.8 L 30.6 27.6 L 30.6 56.0 L 35.4 60.8"/>
  </g>
</svg>
